<?xml version="1.0" encoding="utf-8"?>
<svg width="1024px" height="1024px" viewBox="0 0 1024 1024" version="1.1" xmlns:xlink="http://www.w3.org/1999/xlink" xmlns="http://www.w3.org/2000/svg">
  <defs>
    <linearGradient x1="0.5" y1="0.5" x2="0.49479187" y2="1.1190815" id="gradient_1">
      <stop offset="0" stop-color="#DFE9F2" />
      <stop offset="0.507874" stop-color="#D6E0E9" />
      <stop offset="1" stop-color="#BFC8D1" />
    </linearGradient>
    <linearGradient x1="0.49999994" y1="2.9802322E-08" x2="0.49999994" y2="1" id="gradient_2">
      <stop offset="0" stop-color="#6DC7FF" />
      <stop offset="1" stop-color="#E6ABFF" />
    </linearGradient>
    <linearGradient x1="0.5" y1="0" x2="0.5" y2="1.0000001" id="gradient_3">
      <stop offset="0" stop-color="#1A6DFF" />
      <stop offset="1" stop-color="#C822FF" />
    </linearGradient>
    <filter filterUnits="userSpaceOnUse" color-interpolation-filters="sRGB" id="filter_1">
      <feFlood flood-opacity="0" result="BackgroundImageFix" />
      <feColorMatrix in="SourceAlpha" type="matrix" values="0 0 0 0 0 0 0 0 0 0 0 0 0 0 0 0 0 0 127 0" />
      <feOffset dx="0" dy="2" />
      <feGaussianBlur stdDeviation="1" />
      <feColorMatrix type="matrix" values="0 0 0 0 0.39215687 0 0 0 0 0.39215687 0 0 0 0 0.39215687 0 0 0 0.49803922 0" />
      <feBlend mode="normal" in2="BackgroundImageFix" result="effect0_dropShadow" />
      <feBlend mode="normal" in="SourceGraphic" in2="effect0_dropShadow" result="shape" />
    </filter>
    <filter filterUnits="userSpaceOnUse" color-interpolation-filters="sRGB" id="filter_2">
      <feFlood flood-opacity="0" result="BackgroundImageFix" />
      <feColorMatrix in="SourceAlpha" type="matrix" values="0 0 0 0 0 0 0 0 0 0 0 0 0 0 0 0 0 0 127 0" />
      <feOffset dx="0" dy="2" />
      <feGaussianBlur stdDeviation="0.5" />
      <feColorMatrix type="matrix" values="0 0 0 0 0.39215687 0 0 0 0 0.39215687 0 0 0 0 0.39215687 0 0 0 0.49803922 0" />
      <feBlend mode="normal" in2="BackgroundImageFix" result="effect0_dropShadow" />
      <feBlend mode="normal" in="SourceGraphic" in2="effect0_dropShadow" result="shape" />
    </filter>
  </defs>
  <g id="XBL-IO-CSharp-SDK">
    <path d="M23.999 0L1000 0Q1000.59 0 1001.18 0.0289078Q1001.77 0.0578157 1002.35 0.115562Q1002.94 0.173308 1003.52 0.259753Q1004.11 0.346198 1004.68 0.461134Q1005.26 0.57607 1005.83 0.71922Q1006.4 0.86237 1006.97 1.03339Q1007.53 1.20441 1008.09 1.40288Q1008.64 1.60136 1009.18 1.82681Q1009.73 2.05227 1010.26 2.30416Q1010.79 2.55605 1011.31 2.83377Q1011.83 3.11149 1012.34 3.41437Q1012.84 3.71725 1013.33 4.04456Q1013.82 4.37187 1014.3 4.72282Q1014.77 5.07377 1015.23 5.44752Q1015.68 5.82127 1016.12 6.21691Q1016.55 6.61256 1016.97 7.02914Q1017.39 7.44573 1017.78 7.88226Q1018.18 8.31878 1018.55 8.77419Q1018.93 9.22961 1019.28 9.70281Q1019.63 10.176 1019.96 10.6659Q1020.28 11.1557 1020.59 11.661Q1020.89 12.1664 1021.17 12.6859Q1021.44 13.2055 1021.7 13.7381Q1021.95 14.2707 1022.17 14.815Q1022.4 15.3593 1022.6 15.914Q1022.8 16.4687 1022.97 17.0325Q1023.14 17.5962 1023.28 18.1677Q1023.42 18.7392 1023.54 19.317Q1023.65 19.8948 1023.74 20.4776Q1023.83 21.0604 1023.88 21.6467Q1023.94 22.233 1023.97 22.8214Q1024 23.4099 1024 23.999L1024 1000Q1024 1000.59 1023.97 1001.18Q1023.94 1001.77 1023.88 1002.35Q1023.83 1002.94 1023.74 1003.52Q1023.65 1004.11 1023.54 1004.68Q1023.42 1005.26 1023.28 1005.83Q1023.14 1006.4 1022.97 1006.97Q1022.8 1007.53 1022.6 1008.09Q1022.4 1008.64 1022.17 1009.18Q1021.95 1009.73 1021.7 1010.26Q1021.44 1010.79 1021.17 1011.31Q1020.89 1011.83 1020.59 1012.34Q1020.28 1012.84 1019.96 1013.33Q1019.63 1013.82 1019.28 1014.3Q1018.93 1014.77 1018.55 1015.23Q1018.18 1015.68 1017.78 1016.12Q1017.39 1016.55 1016.97 1016.97Q1016.55 1017.39 1016.12 1017.78Q1015.68 1018.18 1015.23 1018.55Q1014.77 1018.93 1014.3 1019.28Q1013.82 1019.63 1013.33 1019.96Q1012.84 1020.28 1012.34 1020.59Q1011.83 1020.89 1011.31 1021.17Q1010.79 1021.44 1010.26 1021.7Q1009.73 1021.95 1009.18 1022.17Q1008.64 1022.4 1008.09 1022.6Q1007.53 1022.8 1006.97 1022.97Q1006.4 1023.14 1005.83 1023.28Q1005.26 1023.42 1004.68 1023.54Q1004.11 1023.65 1003.52 1023.74Q1002.94 1023.83 1002.35 1023.88Q1001.77 1023.94 1001.18 1023.97Q1000.59 1024 1000 1024L23.999 1024Q23.4099 1024 22.8214 1023.97Q22.233 1023.94 21.6467 1023.88Q21.0604 1023.83 20.4776 1023.74Q19.8948 1023.65 19.317 1023.54Q18.7392 1023.42 18.1677 1023.28Q17.5962 1023.14 17.0325 1022.97Q16.4687 1022.8 15.914 1022.6Q15.3593 1022.4 14.815 1022.17Q14.2707 1021.95 13.7381 1021.7Q13.2055 1021.44 12.6859 1021.17Q12.1664 1020.89 11.661 1020.59Q11.1557 1020.28 10.6659 1019.96Q10.176 1019.63 9.70281 1019.28Q9.22961 1018.93 8.77419 1018.55Q8.31878 1018.18 7.88226 1017.78Q7.44573 1017.39 7.02914 1016.97Q6.61256 1016.55 6.21691 1016.12Q5.82127 1015.68 5.44752 1015.23Q5.07377 1014.77 4.72282 1014.3Q4.37187 1013.82 4.04456 1013.33Q3.71725 1012.84 3.41437 1012.34Q3.11149 1011.83 2.83377 1011.31Q2.55605 1010.79 2.30416 1010.26Q2.05227 1009.73 1.82681 1009.18Q1.60136 1008.64 1.40288 1008.09Q1.20441 1007.53 1.03339 1006.97Q0.86237 1006.4 0.71922 1005.83Q0.57607 1005.26 0.461134 1004.68Q0.346198 1004.11 0.259753 1003.52Q0.173308 1002.94 0.115562 1002.35Q0.0578157 1001.77 0.0289078 1001.18Q0 1000.59 0 1000L0 23.999Q0 23.4099 0.0289078 22.8214Q0.0578157 22.233 0.115562 21.6467Q0.173308 21.0604 0.259753 20.4776Q0.346198 19.8948 0.461134 19.317Q0.57607 18.7392 0.71922 18.1677Q0.86237 17.5962 1.03339 17.0325Q1.20441 16.4687 1.40288 15.914Q1.60136 15.3593 1.82681 14.815Q2.05227 14.2707 2.30416 13.7381Q2.55605 13.2055 2.83377 12.6859Q3.11149 12.1664 3.41437 11.661Q3.71725 11.1557 4.04456 10.6659Q4.37187 10.176 4.72282 9.70281Q5.07377 9.22961 5.44752 8.77419Q5.82127 8.31878 6.21691 7.88226Q6.61256 7.44573 7.02914 7.02914Q7.44573 6.61256 7.88226 6.21691Q8.31878 5.82127 8.77419 5.44752Q9.22961 5.07377 9.70281 4.72282Q10.176 4.37187 10.6659 4.04456Q11.1557 3.71725 11.661 3.41437Q12.1664 3.11149 12.6859 2.83377Q13.2055 2.55605 13.7381 2.30416Q14.2707 2.05227 14.815 1.82681Q15.3593 1.60136 15.914 1.40288Q16.4687 1.20441 17.0325 1.03339Q17.5962 0.86237 18.1677 0.71922Q18.7392 0.57607 19.317 0.461134Q19.8948 0.346198 20.4776 0.259753Q21.0604 0.173308 21.6467 0.115562Q22.233 0.0578157 22.8214 0.0289078Q23.4099 0 23.999 0Z" id="Background" fill="url(#gradient_1)" fill-rule="evenodd" stroke="none" />
    <g filter="url(#filter_2)">
      <g id="Icon" transform="translate(67.999756 64)">
        <path d="M598.08 270.368L572.372 238.06L600.199 212.541C636.522 179.217 661.73 159.264 688.955 142.309C703.532 133.228 722.245 124.957 736.943 120.512C707.995 94.3383 675.463 72.0934 640.244 54.4319C598.631 56.982 543.786 73.7648 485.425 102.144C465.127 112.034 447.483 119.909 446.174 119.702C444.881 119.444 428.34 111.397 409.369 101.782L409.403 101.782C371.702 82.6559 313.566 62.134 281.447 56.603C274.21 55.3624 263.734 54.518 253.878 54.2079C218.71 71.7833 186.23 93.9593 157.3 120.012C160.418 120.908 163.813 121.994 167.897 123.372C201.238 134.658 236.889 159.264 292.182 209.25L324.49 238.439L306.828 260.064C224.999 360.468 138.622 502.863 106.124 590.929C93.8904 624.064 86.8775 657.078 86.1538 681.029C102.092 704.962 120.288 727.259 140.534 747.54C140.517 746.764 140.396 746.092 140.396 745.299C140.396 691.04 200.084 596.012 302.21 487.7C360.192 426.168 440.97 354.075 449.723 356.022C466.713 359.813 602.508 492.197 653.356 554.521C718.161 633.937 754.673 701.74 756.586 743.904C776.436 723.572 794.27 701.275 809.846 677.376C808.95 657.164 803.902 631.232 795.303 605.024C768.699 523.901 679.754 372.977 598.08 270.368L598.08 270.368Z" id="Shape" fill="url(#gradient_2)" fill-rule="evenodd" stroke="none" filter="url(#filter_1)" />
        <path d="M448 896C200.962 896 0 695.02 0 448C0 200.98 200.962 0 448 0C695.038 0 896 200.98 896 448C896 695.02 695.038 896 448 896L448 896ZM448 34.4615C219.985 34.4615 34.4615 219.985 34.4615 448C34.4615 676.015 219.985 861.538 448 861.538C676.015 861.538 861.538 676.015 861.538 448C861.538 219.985 676.015 34.4615 448 34.4615L448 34.4615Z" id="Shape" fill="url(#gradient_3)" fill-rule="evenodd" stroke="none" />
      </g>
    </g>
  </g>
</svg>